<svg width="121" height="40" viewBox="0 0 121 40" fill="none" xmlns="http://www.w3.org/2000/svg">
<g clip-path="url(#clip0_179_3682)">
<path d="M111.119 0.00013H9.61986C9.24988 0.00013 8.88434 0.00013 8.51535 0.00213C8.20646 0.00413 7.90004 0.00994 7.58819 0.01483C6.9107 0.0227318 6.23481 0.0818063 5.56639 0.19154C4.8989 0.303663 4.25232 0.515046 3.64852 0.81854C3.04546 1.1246 2.49443 1.5223 2.01541 1.9972C1.53388 2.47077 1.13249 3.01815 0.82667 3.61829C0.520004 4.21724 0.307362 4.85907 0.196086 5.52161C0.0837525 6.18332 0.0233047 6.85265 0.0152853 7.52361C0.00592244 7.83021 0.00493368 8.13783 0 8.44447V31.5587C0.00493368 31.8692 0.00592244 32.17 0.0152853 32.4806C0.0233072 33.1516 0.083755 33.8209 0.196086 34.4825C0.307055 35.1455 0.51971 35.7877 0.82667 36.3868C1.13235 36.985 1.5338 37.5302 2.01541 38.0011C2.49262 38.4781 3.044 38.8761 3.64852 39.1798C4.25232 39.4841 4.89883 39.6968 5.56639 39.8106C6.23492 39.9195 6.91075 39.9786 7.58819 39.9874C7.90004 39.9942 8.20646 39.9981 8.51535 39.9981C8.88433 40.0001 9.2499 40.0001 9.61986 40.0001H111.119C111.481 40.0001 111.85 40.0001 112.212 39.9981C112.52 39.9981 112.835 39.9942 113.142 39.9874C113.819 39.9791 114.493 39.92 115.16 39.8106C115.83 39.696 116.479 39.4834 117.086 39.1798C117.69 38.8759 118.24 38.478 118.717 38.0011C119.198 37.5284 119.6 36.9836 119.909 36.3868C120.214 35.7872 120.425 35.1451 120.534 34.4825C120.647 33.8208 120.709 33.1516 120.721 32.4806C120.725 32.17 120.725 31.8692 120.725 31.5587C120.733 31.1954 120.733 30.8341 120.733 30.4649V9.53626C120.733 9.17005 120.733 8.80677 120.725 8.44447C120.725 8.13783 120.725 7.83021 120.721 7.52357C120.709 6.85255 120.647 6.18337 120.534 5.52157C120.424 4.85941 120.214 4.21763 119.909 3.61825C119.287 2.41533 118.299 1.43616 117.086 0.81845C116.479 0.515697 115.83 0.30437 115.16 0.19145C114.493 0.0812328 113.819 0.0221378 113.142 0.01469C112.835 0.00981 112.52 0.00395 112.212 0.002C111.85 0 111.481 0.00013 111.119 0.00013Z" fill="#A6A6A6"/>
<path d="M8.52032 39.125C8.21292 39.125 7.91294 39.1211 7.60795 39.1143C6.97614 39.1061 6.3458 39.0516 5.72211 38.9512C5.14056 38.8519 4.57718 38.6673 4.05057 38.4033C3.5288 38.1415 3.05289 37.7983 2.64109 37.3867C2.22334 36.98 1.87553 36.5082 1.61147 35.9902C1.34449 35.4688 1.15973 34.9099 1.06362 34.333C0.959823 33.7131 0.903666 33.0863 0.89563 32.458C0.889234 32.2471 0.880859 31.5449 0.880859 31.5449V8.44434C0.880859 8.44434 0.889778 7.75293 0.895681 7.5498C0.903375 6.92248 0.959205 6.29665 1.06269 5.67773C1.15898 5.09925 1.34389 4.53875 1.611 4.01563C1.8741 3.49794 2.21997 3.02586 2.63521 2.61768C3.04999 2.20562 3.52741 1.8606 4.05008 1.59521C4.57548 1.33209 5.13779 1.14873 5.71817 1.05127C6.34391 0.949836 6.97643 0.894996 7.61043 0.88721L8.52082 0.875H112.207L113.129 0.8877C113.757 0.895099 114.384 0.94945 115.004 1.05029C115.59 1.14898 116.158 1.33362 116.69 1.59814C117.737 2.13299 118.589 2.97916 119.126 4.01807C119.389 4.53758 119.571 5.09351 119.666 5.66699C119.771 6.29099 119.829 6.92174 119.841 7.5542C119.844 7.8374 119.844 8.1416 119.844 8.44434C119.852 8.81934 119.852 9.17627 119.852 9.53613V30.4648C119.852 30.8281 119.852 31.1826 119.844 31.54C119.844 31.8652 119.844 32.1631 119.84 32.4697C119.829 33.0909 119.771 33.7104 119.668 34.3232C119.574 34.9043 119.39 35.4675 119.123 35.9932C118.857 36.5056 118.511 36.9733 118.098 37.3789C117.686 37.7927 117.21 38.1379 116.687 38.4014C116.157 38.6674 115.589 38.8527 115.004 38.9512C114.38 39.0522 113.75 39.1067 113.118 39.1143C112.822 39.1211 112.513 39.125 112.212 39.125L111.119 39.127L8.52032 39.125Z" fill="black"/>
<path d="M24.99 20.3003C25.0009 19.4657 25.2246 18.6473 25.6403 17.9213C26.056 17.1954 26.6502 16.5854 27.3677 16.1483C26.9119 15.5031 26.3106 14.9722 25.6116 14.5976C24.9126 14.2231 24.1351 14.0152 23.3408 13.9906C21.6466 13.8143 20.0041 14.9954 19.1408 14.9954C18.2607 14.9954 16.9314 14.0081 15.5 14.0373C14.5741 14.0669 13.6718 14.3338 12.8809 14.8118C12.0901 15.2899 11.4376 15.9629 10.9871 16.7651C9.03587 20.1136 10.4913 25.0346 12.3605 27.7412C13.2957 29.0666 14.3886 30.547 15.8188 30.4945C17.2182 30.437 17.7409 29.61 19.4301 29.61C21.1037 29.61 21.5941 30.4945 23.0532 30.4611C24.5549 30.437 25.501 29.1299 26.4034 27.792C27.0753 26.8476 27.5924 25.8039 27.9354 24.6995C27.0629 24.3338 26.3184 23.7216 25.7947 22.9393C25.2709 22.157 24.9911 21.2392 24.99 20.3003Z" fill="white"/>
<path d="M22.2341 12.2113C23.0528 11.2371 23.4562 9.98494 23.3585 8.7207C22.1076 8.85092 20.9521 9.44348 20.1223 10.3803C19.7166 10.838 19.4058 11.3704 19.2078 11.9472C19.0098 12.524 18.9285 13.1337 18.9684 13.7417C19.594 13.7481 20.213 13.6137 20.7787 13.3486C21.3444 13.0835 21.842 12.6946 22.2341 12.2113Z" fill="white"/>
<path d="M42.68 27.1397H37.9043L36.7574 30.4961H34.7346L39.2581 18.0781H41.3597L45.8831 30.4961H43.8258L42.68 27.1397ZM38.3989 25.5908H42.1844L40.3183 20.1436H40.2661L38.3989 25.5908Z" fill="white"/>
<path d="M55.6521 25.9695C55.6521 28.7829 54.1328 30.5905 51.8401 30.5905C51.2593 30.6207 50.6817 30.4881 50.1734 30.2079C49.6651 29.9278 49.2466 29.5114 48.966 29.0065H48.9226V33.4909H47.0476V21.4421H48.8625V22.948H48.897C49.1906 22.4455 49.6161 22.0313 50.1282 21.7495C50.6404 21.4676 51.2201 21.3287 51.8056 21.3474C54.1239 21.3474 55.6521 23.1638 55.6521 25.9695ZM53.7249 25.9695C53.7249 24.1365 52.7692 22.9314 51.311 22.9314C49.8784 22.9314 48.9147 24.1618 48.9147 25.9695C48.9147 27.7937 49.8784 29.0154 51.311 29.0154C52.7692 29.0154 53.7249 27.8191 53.7249 25.9695Z" fill="white"/>
<path d="M65.7061 25.9694C65.7061 28.7829 64.1868 30.5905 61.894 30.5905C61.3132 30.6206 60.7356 30.488 60.2273 30.2079C59.719 29.9278 59.3006 29.5114 59.0199 29.0065H58.9766V33.4909H57.1016V21.4421H58.9165V22.948H58.9509C59.2445 22.4455 59.67 22.0313 60.1822 21.7495C60.6943 21.4676 61.274 21.3287 61.8595 21.3474C64.1779 21.3474 65.7061 23.1638 65.7061 25.9694ZM63.7789 25.9694C63.7789 24.1364 62.8231 22.9314 61.3649 22.9314C59.9323 22.9314 58.9687 24.1618 58.9687 25.9694C58.9687 27.7937 59.9323 29.0153 61.3649 29.0153C62.8232 29.0153 63.7789 27.8191 63.7789 25.9694Z" fill="white"/>
<path d="M72.3508 27.0362C72.4897 28.2676 73.6967 29.0762 75.346 29.0762C76.9264 29.0762 78.0635 28.2676 78.0635 27.1572C78.0635 26.1934 77.3777 25.6162 75.7539 25.2207L74.1302 24.833C71.8296 24.2822 70.7615 23.2158 70.7615 21.4854C70.7615 19.3428 72.6454 17.8711 75.3204 17.8711C77.9679 17.8711 79.7828 19.3428 79.8439 21.4854H77.9511C77.8378 20.2461 76.8042 19.4981 75.2938 19.4981C73.7833 19.4981 72.7498 20.2549 72.7498 21.3565C72.7498 22.2344 73.4099 22.751 75.0248 23.1465L76.4052 23.4824C78.9758 24.0849 80.0439 25.1084 80.0439 26.9248C80.0439 29.248 78.1767 30.7031 75.2071 30.7031C72.4286 30.7031 70.5526 29.2822 70.4314 27.0361L72.3508 27.0362Z" fill="white"/>
<path d="M84.0904 19.3008V21.4434H85.8275V22.915H84.0904V27.9062C84.0904 28.6816 84.4383 29.043 85.2018 29.043C85.4081 29.0394 85.6139 29.0251 85.8186 29V30.4629C85.4753 30.5264 85.1264 30.5552 84.7772 30.5488C82.9278 30.5488 82.2066 29.8603 82.2066 28.1045V22.915H80.8784V21.4434H82.2066V19.3008H84.0904Z" fill="white"/>
<path d="M86.8337 25.9707C86.8337 23.1221 88.5265 21.332 91.166 21.332C93.8145 21.332 95.4993 23.122 95.4993 25.9707C95.4993 28.8272 93.8234 30.6094 91.166 30.6094C88.5097 30.6094 86.8337 28.8271 86.8337 25.9707ZM93.5889 25.9707C93.5889 24.0166 92.6853 22.8633 91.166 22.8633C89.6467 22.8633 88.7442 24.0254 88.7442 25.9707C88.7442 27.9326 89.6467 29.0772 91.166 29.0772C92.6853 29.0772 93.5889 27.9326 93.5889 25.9707Z" fill="white"/>
<path d="M97.0452 21.442H98.8335V22.983H98.8769C98.9978 22.5017 99.2823 22.0764 99.6824 21.7785C100.083 21.4806 100.574 21.3284 101.074 21.3473C101.29 21.3465 101.506 21.3698 101.716 21.4166V23.1549C101.444 23.0723 101.159 23.0343 100.874 23.0426C100.602 23.0316 100.33 23.0792 100.078 23.1821C99.8259 23.285 99.5993 23.4408 99.4136 23.6386C99.228 23.8365 99.0878 24.0719 99.0026 24.3286C98.9175 24.5852 98.8893 24.8571 98.9202 25.1256V30.4957H97.0452L97.0452 21.442Z" fill="white"/>
<path d="M110.361 27.8379C110.109 29.4814 108.494 30.6094 106.428 30.6094C103.771 30.6094 102.121 28.8447 102.121 26.0137C102.121 23.1738 103.78 21.332 106.349 21.332C108.876 21.332 110.466 23.0527 110.466 25.7978V26.4346H104.014V26.5469C103.984 26.8801 104.026 27.2157 104.138 27.5316C104.249 27.8474 104.426 28.1362 104.659 28.3787C104.891 28.6213 105.173 28.8121 105.486 28.9384C105.798 29.0647 106.134 29.1236 106.471 29.1113C106.914 29.1525 107.359 29.0508 107.739 28.8213C108.119 28.5919 108.414 28.247 108.581 27.8379L110.361 27.8379ZM104.023 25.1357H108.59C108.607 24.8361 108.561 24.5363 108.455 24.2551C108.35 23.9739 108.186 23.7174 107.976 23.5016C107.766 23.2858 107.513 23.1155 107.233 23.0013C106.953 22.8871 106.652 22.8314 106.349 22.8379C106.044 22.8361 105.741 22.8942 105.459 23.009C105.176 23.1237 104.919 23.2928 104.703 23.5064C104.487 23.72 104.315 23.974 104.199 24.2537C104.082 24.5333 104.022 24.8331 104.023 25.1357Z" fill="white"/>
<path d="M37.0666 11.2534H37.8716C38.0102 11.2705 38.1508 11.259 38.2847 11.2195C38.4185 11.1801 38.5427 11.1136 38.6493 11.0242C38.7559 10.9349 38.8427 10.8246 38.9042 10.7003C38.9657 10.576 39.0006 10.4405 39.0066 10.3022C39.0066 9.75193 38.5889 9.39646 37.8805 9.39646C37.7385 9.3768 37.594 9.38553 37.4555 9.42214C37.317 9.45875 37.1873 9.52249 37.074 9.60961C36.9608 9.69672 36.8663 9.80544 36.7961 9.92935C36.726 10.0533 36.6816 10.1898 36.6656 10.331H35.7818C35.797 10.0747 35.8653 9.82428 35.9824 9.59527C36.0995 9.36626 36.2629 9.16359 36.4624 8.99989C36.662 8.83618 36.8934 8.71494 37.1423 8.64372C37.3911 8.5725 37.6521 8.55282 37.909 8.58591C39.0943 8.58591 39.9289 9.24362 39.9289 10.1904C39.9317 10.5076 39.8246 10.8161 39.6256 11.0645C39.4265 11.3129 39.1475 11.486 38.8352 11.5551V11.6255C39.2055 11.6417 39.5542 11.8027 39.8051 12.073C40.056 12.3434 40.1887 12.7013 40.1742 13.0683C40.1468 13.3322 40.0665 13.588 39.9381 13.8208C39.8096 14.0535 39.6356 14.2585 39.4262 14.4237C39.2168 14.5889 38.9762 14.7111 38.7186 14.7829C38.4609 14.8548 38.1914 14.875 37.9258 14.8423C37.6596 14.8782 37.3889 14.8607 37.1297 14.7907C36.8705 14.7208 36.6282 14.5998 36.4171 14.4351C36.2061 14.2703 36.0307 14.0651 35.9014 13.8317C35.7721 13.5983 35.6916 13.3415 35.6646 13.0766H36.5622C36.6163 13.6474 37.1454 14.0156 37.9258 14.0156C38.7061 14.0156 39.2155 13.6021 39.2155 13.0191C39.2155 12.4277 38.7357 12.0635 37.8972 12.0635H37.0666V11.2534Z" fill="white"/>
<path d="M41.1938 13.4238C41.1938 12.6133 41.8037 12.146 42.8836 12.0796L44.1142 12.0093V11.6206C44.1142 11.145 43.798 10.8765 43.1841 10.8765C42.6836 10.8765 42.3378 11.0586 42.2373 11.377H41.3692C41.4609 10.6035 42.1959 10.1074 43.2265 10.1074C44.3655 10.1074 45.0079 10.6694 45.0079 11.6206V14.6973H44.1438V14.0645H44.0729C43.9289 14.2914 43.7267 14.4765 43.4869 14.6007C43.2472 14.7249 42.9785 14.7838 42.7082 14.7715C42.5175 14.7911 42.3248 14.7709 42.1424 14.7122C41.96 14.6536 41.7921 14.5576 41.6494 14.4307C41.5067 14.3037 41.3924 14.1485 41.314 13.9751C41.2355 13.8017 41.1946 13.6139 41.1938 13.4238ZM44.1142 13.0391V12.6626L43.0048 12.7329C42.3791 12.7744 42.0953 12.9853 42.0953 13.3823C42.0953 13.7876 42.45 14.0234 42.9378 14.0234C43.0807 14.0378 43.2251 14.0235 43.3623 13.9814C43.4995 13.9393 43.6268 13.8703 43.7366 13.7784C43.8463 13.6866 43.9363 13.5738 44.0012 13.4468C44.0661 13.3198 44.1045 13.1811 44.1142 13.0391Z" fill="white"/>
<path d="M47.3876 10.9434V14.6982H46.491V10.1953H49.4823V10.9433L47.3876 10.9434Z" fill="white"/>
<path d="M54.916 12.4438C54.916 13.8745 54.1859 14.7714 53.039 14.7714C52.7575 14.7905 52.4763 14.7294 52.2286 14.5954C51.9809 14.4614 51.777 14.2601 51.6409 14.0151H51.57V16.1943H50.6733V10.1943H51.5365V10.9385H51.6035C51.742 10.6849 51.9486 10.4742 52.2004 10.3297C52.4521 10.1852 52.7393 10.1125 53.0301 10.1196C54.1859 10.1196 54.916 11.0126 54.916 12.4438ZM53.9938 12.4438C53.9938 11.4926 53.5395 10.9179 52.7799 10.9179C52.0252 10.9179 51.5532 11.5048 51.5532 12.4477C51.5532 13.3862 52.0252 13.9736 52.7759 13.9736C53.5395 13.9736 53.9938 13.3989 53.9938 12.4438Z" fill="white"/>
<path d="M56.1103 16.311V15.5459C56.2074 15.5581 56.3051 15.5637 56.4029 15.5625C56.594 15.5765 56.7835 15.5201 56.9351 15.4042C57.0868 15.2882 57.1899 15.1208 57.2247 14.9341L57.2917 14.7148L55.6472 10.1953H56.6236L57.7627 13.772H57.8336L58.9687 10.1953H59.9195L58.2258 14.8843C57.8376 15.98 57.408 16.3316 56.4818 16.3316C56.4069 16.3315 56.1941 16.3232 56.1103 16.311Z" fill="white"/>
<path d="M60.6179 13.4205H61.5106C61.5983 13.8175 61.9737 14.0245 62.4988 14.0245C63.0959 14.0245 63.4624 13.7638 63.4624 13.3585C63.4624 12.9244 63.1334 12.7174 62.4988 12.7174H61.819V12.027H62.487C63.0289 12.027 63.3048 11.8204 63.3048 11.444C63.3048 11.1134 63.0378 10.861 62.487 10.861C61.9855 10.861 61.619 11.0719 61.5608 11.4274H60.6967C60.7613 11.0189 60.9851 10.6519 61.3199 10.4053C61.6547 10.1586 62.0738 10.0521 62.487 10.1085C63.5669 10.1085 64.1847 10.5924 64.1847 11.3532C64.1897 11.565 64.1212 11.7721 63.9907 11.9399C63.8601 12.1077 63.6754 12.226 63.4674 12.275V12.3454C63.715 12.377 63.9423 12.4977 64.1061 12.6844C64.2699 12.8712 64.3589 13.1111 64.3561 13.3585C64.3561 14.2145 63.6211 14.7809 62.4988 14.7809C61.5067 14.7809 60.7007 14.3302 60.6179 13.4205Z" fill="white"/>
<path d="M65.6472 14.6982V10.1953H66.5359V13.2925H66.6069L68.7006 10.1953H69.5893V14.6983H68.7006V11.5845H68.6336L66.5359 14.6983L65.6472 14.6982Z" fill="white"/>
<path d="M74.4852 10.9433H73.0546V14.6982H72.157V10.9433H70.7263V10.1953H74.4852V10.9433Z" fill="white"/>
<path d="M79.3152 13.4815C79.193 13.893 78.9288 14.2489 78.5688 14.4871C78.2088 14.7252 77.7759 14.8304 77.3456 14.7843C77.0463 14.7921 76.7488 14.7353 76.4739 14.6177C76.1989 14.5002 75.9531 14.3248 75.7534 14.1036C75.5537 13.8825 75.405 13.621 75.3175 13.3371C75.2301 13.0533 75.206 12.754 75.2469 12.46C75.2071 12.1652 75.2316 11.8652 75.3188 11.5805C75.4061 11.2959 75.5541 11.0331 75.7527 10.81C75.9513 10.587 76.196 10.4088 76.4701 10.2876C76.7442 10.1664 77.0415 10.105 77.3416 10.1075C78.6058 10.1075 79.3694 10.9635 79.3694 12.3775V12.6876H76.1613V12.7374C76.1471 12.9027 76.1679 13.0691 76.2224 13.2259C76.277 13.3827 76.364 13.5265 76.478 13.648C76.5919 13.7695 76.7303 13.866 76.8841 13.9313C77.0379 13.9967 77.2039 14.0294 77.3712 14.0274C77.5855 14.0528 77.8026 14.0145 77.9949 13.9173C78.1872 13.8201 78.346 13.6684 78.4511 13.4815L79.3152 13.4815ZM76.1612 12.0304H78.455C78.4663 11.8793 78.4456 11.7276 78.3943 11.5849C78.343 11.4422 78.2621 11.3118 78.1569 11.202C78.0517 11.0921 77.9244 11.0053 77.7833 10.9471C77.6423 10.8888 77.4905 10.8605 77.3377 10.8639C77.1826 10.8618 77.0286 10.8905 76.8849 10.9484C76.7412 11.0063 76.6106 11.0921 76.5009 11.2009C76.3913 11.3096 76.3047 11.4391 76.2464 11.5815C76.188 11.724 76.1591 11.8766 76.1612 12.0304Z" fill="white"/>
<path d="M83.1165 10.1953H85.1649C86.0536 10.1953 86.5748 10.6416 86.5748 11.3403C86.5762 11.562 86.5007 11.7775 86.361 11.9506C86.2213 12.1238 86.0258 12.2441 85.8073 12.2915V12.3618C86.0726 12.3784 86.3214 12.4954 86.5021 12.6886C86.6829 12.8818 86.782 13.1364 86.7788 13.3999C86.7788 14.1855 86.1827 14.6982 85.1856 14.6982H83.1165V10.1953ZM84.0052 10.8774V12.0434H84.8939C85.4358 12.0434 85.695 11.8369 85.695 11.456C85.695 11.105 85.4693 10.8774 84.9934 10.8774L84.0052 10.8774ZM84.0052 12.6968V14.0161H85.0684C85.5984 14.0161 85.8822 13.7842 85.8822 13.3584C85.8822 12.9077 85.561 12.6968 84.956 12.6968L84.0052 12.6968Z" fill="white"/>
</g>
<defs>
<clipPath id="clip0_179_3682">
<rect width="120.733" height="40" fill="white"/>
</clipPath>
</defs>
</svg>
