<svg width="26" height="25" viewBox="0 0 26 25" fill="none" xmlns="http://www.w3.org/2000/svg">
<path d="M4.54016 2C3.15312 2 2.01782 3.12524 2.01782 4.5V20.5C2.01782 21.8748 3.15312 23 4.54016 23H13.0314C13.0858 23.0089 13.1414 23.0089 13.1959 23H16.0582C16.1126 23.0089 16.1682 23.0089 16.2227 23H20.6831C22.0701 23 23.2054 21.8748 23.2054 20.5V4.5C23.2054 3.12524 22.0701 2 20.6831 2H4.54016ZM4.54016 3H20.6831C21.5248 3 22.1965 3.66576 22.1965 4.5V20.5C22.1965 21.3342 21.5248 22 20.6831 22H16.6474V15H18.5746L19.281 11.5H16.6474V10.5C16.6474 10.2213 16.6741 10.1995 16.7685 10.1387C16.863 10.0779 17.1548 10 17.6563 10H19.1697V7.18457L18.882 7.04883C18.882 7.04883 17.7232 6.5 16.1429 6.5C15.0078 6.5 14.0754 6.94823 13.4787 7.6875C12.882 8.42677 12.6116 9.41667 12.6116 10.5V11.5H11.0982V15H12.6116V22H4.54016C3.69846 22 3.02676 21.3342 3.02676 20.5V4.5C3.02676 3.66576 3.69846 3 4.54016 3ZM16.1429 7.5C17.1917 7.5 17.8517 7.72923 18.1608 7.85059V9H17.6563C17.0757 9 16.6105 9.0476 16.2188 9.2998C15.827 9.55201 15.6384 10.0307 15.6384 10.5V12.5H18.0494L17.7469 14H15.6384V22H13.6206V14H12.1072V12.5H13.6206V10.5C13.6206 9.58333 13.8547 8.82323 14.2669 8.3125C14.6791 7.80177 15.2601 7.5 16.1429 7.5Z" fill="#F959E9"/>
</svg>
