<svg width="26" height="25" viewBox="0 0 26 25" fill="none" xmlns="http://www.w3.org/2000/svg">
<path d="M8.58907 1.5C4.9733 1.5 2.03101 4.41624 2.03101 8V17C2.03101 20.5838 4.9733 23.5 8.58907 23.5H17.6695C21.2852 23.5 24.2275 20.5838 24.2275 17V8C24.2275 4.41624 21.2852 1.5 17.6695 1.5H8.58907ZM8.58907 2.5H17.6695C20.7399 2.5 23.2186 4.95676 23.2186 8V17C23.2186 20.0432 20.7399 22.5 17.6695 22.5H8.58907C5.51864 22.5 3.03994 20.0432 3.03994 17V8C3.03994 4.95676 5.51864 2.5 8.58907 2.5ZM19.1829 5.5C18.9153 5.5 18.6587 5.60536 18.4694 5.79289C18.2802 5.98043 18.1739 6.23478 18.1739 6.5C18.1739 6.76522 18.2802 7.01957 18.4694 7.20711C18.6587 7.39464 18.9153 7.5 19.1829 7.5C19.4505 7.5 19.7071 7.39464 19.8963 7.20711C20.0855 7.01957 20.1918 6.76522 20.1918 6.5C20.1918 6.23478 20.0855 5.98043 19.8963 5.79289C19.7071 5.60536 19.4505 5.5 19.1829 5.5ZM13.1293 7C10.0705 7 7.58014 9.46836 7.58014 12.5C7.58014 15.5316 10.0705 18 13.1293 18C16.188 18 18.6784 15.5316 18.6784 12.5C18.6784 9.46836 16.188 7 13.1293 7ZM13.1293 8C15.6427 8 17.6695 10.0088 17.6695 12.5C17.6695 14.9912 15.6427 17 13.1293 17C10.6158 17 8.58907 14.9912 8.58907 12.5C8.58907 10.0088 10.6158 8 13.1293 8Z" fill="#F959E9"/>
</svg>
