<svg width="26" height="25" viewBox="0 0 26 25" fill="none" xmlns="http://www.w3.org/2000/svg">
<g clip-path="url(#clip0_179_3717)">
<path d="M17.2984 2.73438C14.2814 2.73438 11.8281 5.16602 11.8281 8.15625C11.8281 8.33594 11.8734 8.51172 11.8911 8.6875C8.16084 8.33398 4.8621 6.55273 2.62156 3.82812C2.51712 3.69727 2.35553 3.62695 2.18607 3.63867C2.01857 3.65039 1.8688 3.74609 1.78604 3.89062C1.31507 4.69336 1.0451 5.61719 1.0451 6.60938C1.0451 7.81055 1.47863 8.91016 2.14862 9.8125C2.01857 9.75586 1.87669 9.72461 1.75451 9.65625C1.59883 9.57422 1.41163 9.57812 1.2599 9.66797C1.10816 9.75781 1.01554 9.91992 1.01357 10.0938V10.1562C1.01357 11.998 1.97521 13.5977 3.39403 14.5781C3.37826 14.5762 3.3625 14.582 3.34673 14.5781C3.17332 14.5488 2.99794 14.6094 2.88168 14.7402C2.76541 14.8711 2.72797 15.0527 2.77921 15.2188C3.34279 16.9551 4.78131 18.2812 6.56271 18.7656C5.14389 19.6016 3.49847 20.0938 1.72298 20.0938C1.33872 20.0938 0.970222 20.0742 0.603695 20.0312C0.367226 20 0.14061 20.1367 0.0617874 20.3594C-0.0190061 20.582 0.0696697 20.8301 0.272639 20.9531C2.54865 22.4004 5.25031 23.25 8.15493 23.25C12.8626 23.25 16.5555 21.3008 19.0325 18.5156C21.5095 15.7305 22.8002 12.1133 22.8002 8.73438C22.8002 8.5918 22.7884 8.45312 22.7845 8.3125C23.7087 7.61133 24.5343 6.78906 25.1807 5.82812C25.3088 5.64258 25.295 5.39453 25.1472 5.22266C25.0014 5.05078 24.755 4.99805 24.5501 5.09375C24.29 5.20898 23.9865 5.2207 23.7146 5.3125C24.0732 4.83789 24.3806 4.32617 24.5659 3.75C24.6289 3.55273 24.5599 3.33594 24.3964 3.20703C24.2328 3.08008 24.0042 3.06445 23.8249 3.17188C22.9638 3.67773 22.01 4.0332 21.0031 4.25C20.0257 3.34375 18.7389 2.73438 17.2984 2.73438ZM17.2984 3.73438C18.5852 3.73438 19.7478 4.2793 20.5617 5.14062C20.6838 5.26562 20.8632 5.31836 21.0346 5.28125C21.6928 5.15234 22.3174 4.96289 22.9263 4.71875C22.5756 5.1875 22.1421 5.58789 21.6336 5.89062C21.4031 6.00195 21.2947 6.26562 21.3794 6.50586C21.4622 6.74414 21.7144 6.88281 21.9647 6.82812C22.4692 6.76758 22.9185 6.56445 23.3993 6.4375C22.9677 6.90039 22.4948 7.31836 21.9805 7.6875C21.8406 7.78906 21.7637 7.95312 21.7755 8.125C21.7834 8.32812 21.7913 8.5293 21.7913 8.73438C21.7913 11.8594 20.5814 15.252 18.2758 17.8438C15.9702 20.4355 12.5848 22.25 8.15493 22.25C6.14298 22.25 4.24334 21.8086 2.52697 21.0312C4.65519 20.8691 6.61788 20.123 8.20222 18.8906C8.36775 18.7598 8.43278 18.541 8.36578 18.3418C8.29878 18.1426 8.11355 18.0059 7.9027 18C6.23953 17.9707 4.84634 17.0117 4.10343 15.6562C4.13102 15.6562 4.15467 15.6562 4.18226 15.6562C4.68081 15.6562 5.17345 15.5938 5.6326 15.4688C5.8533 15.4043 6.00503 15.2012 5.99715 14.9727C5.98927 14.7441 5.82571 14.5488 5.60107 14.5C3.80588 14.1406 2.45997 12.6914 2.14862 10.8906C2.65703 11.0645 3.17726 11.2012 3.74085 11.2188C3.9714 11.2324 4.18028 11.0898 4.25123 10.873C4.32217 10.6562 4.23546 10.418 4.04037 10.2969C2.84227 9.50195 2.05404 8.14844 2.05404 6.60938C2.05404 6.03906 2.2038 5.51562 2.40086 5.01562C4.92319 7.75977 8.45446 9.58203 12.4429 9.78125C12.6005 9.78906 12.7542 9.72461 12.8567 9.60547C12.9592 9.48437 12.9986 9.32422 12.9631 9.17188C12.8863 8.84766 12.837 8.50391 12.837 8.15625C12.837 5.70703 14.8273 3.73438 17.2984 3.73438Z" fill="#F959E9"/>
</g>
<defs>
<clipPath id="clip0_179_3717">
<rect width="25.2233" height="25" fill="white" transform="translate(0.0361328)"/>
</clipPath>
</defs>
</svg>
