<svg width="27" height="25" viewBox="0 0 27 25" fill="none" xmlns="http://www.w3.org/2000/svg">
<path d="M13.5765 1C7.17445 1 1.97375 6.15465 1.97375 12.5C1.97375 18.8454 7.17445 24 13.5765 24C19.9785 24 25.1792 18.8454 25.1792 12.5C25.1792 6.15465 19.9785 1 13.5765 1ZM13.5765 2C19.4333 2 24.1703 6.69509 24.1703 12.5C24.1703 18.3049 19.4333 23 13.5765 23C7.71972 23 2.98269 18.3049 2.98269 12.5C2.98269 6.69509 7.71972 2 13.5765 2ZM8.53281 9L6.4972 9.00098C6.4972 9.00098 6.38072 8.99447 6.24005 9.0127C6.09937 9.03092 5.89154 9.03938 5.67843 9.27832L5.67745 9.2793L5.67646 9.28027C5.4869 9.49513 5.49413 9.74521 5.51783 9.88281C5.54144 10.0199 5.59468 10.123 5.59468 10.123V10.124C5.61425 10.1716 7.09226 13.761 8.95549 15.6895C10.2698 17.0506 11.6754 17.5 12.9272 17.5H13.5765C13.7901 17.5 13.9809 17.4904 14.1923 17.3818C14.4037 17.2733 14.5854 16.9738 14.5854 16.7412C14.5854 16.4906 14.5916 16.2477 14.6238 16.1123C14.6539 15.9859 14.6423 16.0169 14.6544 16.0166C14.6665 16.0192 14.6885 16.0243 14.7303 16.043C14.8203 16.0833 14.9593 16.1733 15.1135 16.292C15.4215 16.529 15.7863 16.8728 16.1954 17.1387C16.7813 17.5236 17.4171 17.5 17.4171 17.5H19.5138L19.5365 17.498C19.5365 17.498 19.8582 17.4908 20.1887 17.29C20.354 17.1897 20.5504 17.0055 20.6164 16.7295C20.6823 16.4535 20.5981 16.1639 20.4361 15.9092C20.3769 15.8158 20.0895 15.4029 18.9424 14.3936C18.646 14.133 18.4439 13.9486 18.364 13.8506C18.3356 13.8158 18.3332 13.8191 18.3275 13.8174C18.3342 13.8003 18.4005 13.662 18.5778 13.4336C18.7626 13.1956 19.0434 12.864 19.4045 12.4082C19.8647 11.8271 20.1875 11.2684 20.3907 10.7969C20.4923 10.5611 20.5643 10.3472 20.6075 10.1533C20.6506 9.95941 20.6851 9.79823 20.6213 9.56836C20.5737 9.39724 20.4445 9.24398 20.3178 9.16309C20.1912 9.08219 20.0731 9.05172 19.9671 9.03223C19.7551 8.99325 19.568 9 19.3936 9C19.0285 9 17.4053 9.0127 17.2713 9.0127C17.1141 9.0127 16.8632 9.0776 16.7471 9.14355C16.459 9.30713 16.3688 9.53125 16.3688 9.53125L16.3412 9.5791L16.3254 9.63281C16.3254 9.63281 15.9558 10.8179 15.5756 11.4287H15.5746C15.1276 12.1483 14.7941 12.4337 14.6475 12.5146C14.6319 12.5232 14.6405 12.5187 14.6298 12.5244C14.6183 12.4913 14.6038 12.4457 14.5943 12.3613C14.5728 12.1712 14.5854 11.9035 14.5854 11.6445C14.5854 10.9273 14.6398 10.4801 14.5795 10.0566C14.5494 9.84492 14.4727 9.60913 14.2977 9.42773C14.1228 9.24634 13.8968 9.15705 13.6711 9.10547H13.6701C13.4349 9.05178 13.1814 9.00568 12.5725 9C11.7966 8.99283 11.2913 9.01667 10.8423 9.21484L10.8374 9.21777L10.8335 9.21973C10.656 9.30232 10.5162 9.397 10.393 9.52344C10.3314 9.58666 10.2584 9.6327 10.2078 9.83398C10.1825 9.93463 10.1797 10.125 10.2945 10.2793C10.4093 10.4335 10.5701 10.4801 10.665 10.4922C10.6475 10.4899 10.7396 10.51 10.8108 10.5449C10.882 10.5798 10.9438 10.6301 10.9596 10.6504V10.6514C10.953 10.6429 11.0214 10.8113 11.0394 10.9648C11.0574 11.1184 11.0542 11.2422 11.0542 11.2422L11.0532 11.2725L11.0561 11.3027C11.0561 11.3027 11.0871 11.6425 11.0709 11.9932C11.0628 12.1685 11.0404 12.345 11.0108 12.4531C11.0092 12.4588 11.0085 12.4568 11.0069 12.4619C10.8806 12.3745 10.5893 12.0698 10.1881 11.4131C9.81719 10.8056 9.46981 9.71289 9.46981 9.71289L9.46193 9.68848L9.45306 9.66504C9.45306 9.66504 9.3883 9.42095 9.1023 9.22168C8.83424 9.03464 8.57912 9.00879 8.57912 9.00879L8.53281 9ZM8.41556 10C8.44441 10.0105 8.50474 10.032 8.51606 10.0371L8.50423 10.002L8.52 10.0381L8.52197 10.0391V10.04H8.52295C8.4976 10.0225 8.51909 10.0399 8.52197 10.0439C8.5359 10.0911 8.84393 11.1427 9.32498 11.9307C9.7632 12.648 10.087 13.0498 10.4403 13.29C10.7933 13.53 11.2681 13.5053 11.5094 13.3809C11.8318 13.2149 11.922 12.9421 11.9843 12.7148C12.0466 12.4876 12.0688 12.2571 12.0789 12.0391C12.0981 11.6231 12.0652 11.2828 12.0621 11.249C12.0626 11.2302 12.0671 11.0677 12.0414 10.8486C12.0155 10.6279 11.9691 10.3536 11.7714 10.0781C11.9928 10.0455 12.1158 9.99587 12.5626 10C13.1325 10.0053 13.2192 10.0289 13.4435 10.0801C13.5656 10.108 13.5792 10.1311 13.5676 10.1191C13.5561 10.1072 13.5666 10.0991 13.5804 10.1963C13.6081 10.3905 13.5765 10.8887 13.5765 11.6445C13.5765 11.8576 13.5557 12.158 13.5913 12.4727C13.6268 12.7871 13.7259 13.1894 14.1095 13.4248C14.3281 13.5589 14.7456 13.605 15.1392 13.3877C15.5327 13.1704 15.9365 12.7536 16.4338 11.9531C16.9251 11.1639 17.2188 10.1263 17.2506 10.0166C17.2506 10.0166 17.2562 10.013 17.2595 10.0107C17.2684 10.0112 17.2571 10.0127 17.2713 10.0127C17.4582 10.0127 19.0525 10 19.3936 10C19.4875 10 19.5287 10.005 19.5986 10.0078C19.5703 10.1158 19.5323 10.2415 19.4626 10.4033C19.2987 10.7837 19.0173 11.2771 18.6103 11.791C18.2596 12.2337 17.9871 12.5549 17.7787 12.8232C17.5704 13.0916 17.4067 13.3033 17.3383 13.6094C17.2699 13.9155 17.4004 14.2607 17.5787 14.4795C17.7571 14.6983 17.9777 14.8826 18.2724 15.1416C19.3822 16.1182 19.5643 16.4138 19.5818 16.4414V16.4424C19.6005 16.4718 19.5884 16.4422 19.5956 16.457C19.5327 16.4765 19.4578 16.4985 19.4508 16.5H17.4093H17.4063C17.4063 16.5 17.0308 16.4878 16.7521 16.3047L16.7511 16.3037H16.7501C16.4552 16.1123 16.0988 15.784 15.7323 15.502C15.549 15.3609 15.3625 15.2288 15.146 15.1318C14.9296 15.0349 14.6554 14.9661 14.3667 15.0518C13.9489 15.1757 13.717 15.5698 13.6425 15.8828C13.589 16.1075 13.5969 16.3029 13.5952 16.499C13.5808 16.4998 13.5933 16.5 13.5765 16.5H12.9272C11.9018 16.5 10.8352 16.1898 9.68461 14.998C8.18878 13.4498 6.8542 10.4558 6.65387 10.001L8.41556 10ZM17.2152 10.0039C17.206 10.0059 17.2322 10.0079 17.2536 10.0098C17.2507 10.0113 17.2538 10.0084 17.2496 10.0107C17.2492 10.0024 17.2275 10.0012 17.2152 10.0039Z" fill="#F959E9"/>
</svg>
