<svg width="26" height="25" viewBox="0 0 26 25" fill="none" xmlns="http://www.w3.org/2000/svg">
<path d="M12.7926 4.5C9.46235 4.5 6.33505 4.75 4.66992 5.09961C3.56048 5.34961 2.60082 6.09961 2.39982 7.25C2.19882 8.44922 1.99585 10.25 1.99585 12.5C1.99585 14.75 2.19685 16.5 2.44908 17.75C2.65205 18.8496 3.60975 19.6504 4.71918 19.9004C6.48679 20.25 9.51161 20.5 12.8419 20.5C16.1722 20.5 19.197 20.25 20.9626 19.9004C22.074 19.6504 23.0317 18.9004 23.2327 17.75C23.4357 16.5 23.6879 14.7012 23.7372 12.4512C23.7372 10.2012 23.4849 8.40039 23.2327 7.15039C23.0317 6.05078 22.074 5.25 20.9626 5C19.197 4.75 16.1209 4.5 12.7926 4.5ZM12.7926 5.5C16.4244 5.5 19.3487 5.79883 20.7616 6.04883C21.5183 6.25 22.1233 6.75 22.2238 7.40039C22.5272 9 22.7282 10.7012 22.7282 12.4512C22.679 14.5996 22.4267 16.3496 22.2238 17.5996C22.074 18.5488 21.0651 18.8496 20.7616 18.9512C18.9447 19.3008 15.9179 19.5488 12.8911 19.5488C9.86435 19.5488 6.78828 19.3496 5.02265 18.9512C4.26595 18.75 3.66098 18.25 3.56048 17.5996C3.15652 16.1992 3.00478 14.3496 3.00478 12.5C3.00478 10.1992 3.20775 8.5 3.40875 7.45117C3.56048 6.5 4.61868 6.19922 4.87092 6.09961C6.53605 5.75 9.61408 5.5 12.7926 5.5ZM10.0673 8.5V16.5L17.1298 12.5L10.0673 8.5ZM11.0762 10.2012L15.112 12.5L11.0762 14.7988V10.2012Z" fill="#F959E9"/>
</svg>
