<svg width="20" height="20" viewBox="0 0 20 20" fill="none" xmlns="http://www.w3.org/2000/svg">
<g clip-path="url(#clip0_315_51)">
<path fill-rule="evenodd" clip-rule="evenodd" d="M10 18.75C12.3206 18.75 14.5462 17.8281 16.1872 16.1872C17.8281 14.5462 18.75 12.3206 18.75 10C18.75 7.67936 17.8281 5.45376 16.1872 3.81282C14.5462 2.17187 12.3206 1.25 10 1.25C7.67936 1.25 5.45376 2.17187 3.81282 3.81282C2.17187 5.45376 1.25 7.67936 1.25 10C1.25 12.3206 2.17187 14.5462 3.81282 16.1872C5.45376 17.8281 7.67936 18.75 10 18.75ZM10 20C12.6522 20 15.1957 18.9464 17.0711 17.0711C18.9464 15.1957 20 12.6522 20 10C20 7.34784 18.9464 4.8043 17.0711 2.92893C15.1957 1.05357 12.6522 0 10 0C7.34784 0 4.8043 1.05357 2.92893 2.92893C1.05357 4.8043 0 7.34784 0 10C0 12.6522 1.05357 15.1957 2.92893 17.0711C4.8043 18.9464 7.34784 20 10 20Z" fill="#0A125A"/>
<path fill-rule="evenodd" clip-rule="evenodd" d="M5.35545 11.9584C5.499 11.8756 5.66959 11.8531 5.8297 11.896C5.98981 11.9389 6.12632 12.0436 6.2092 12.1872C6.59309 12.8526 7.14552 13.4051 7.81086 13.7892C8.47621 14.1732 9.23098 14.3751 9.9992 14.3747C10.7674 14.3751 11.5222 14.1732 12.1875 13.7892C12.8529 13.4051 13.4053 12.8526 13.7892 12.1872C13.8299 12.1155 13.8845 12.0526 13.9496 12.0021C14.0147 11.9516 14.0892 11.9145 14.1688 11.8929C14.2483 11.8713 14.3313 11.8657 14.4131 11.8763C14.4948 11.8869 14.5737 11.9136 14.645 11.9548C14.7164 11.996 14.7789 12.051 14.829 12.1164C14.8791 12.1819 14.9157 12.2567 14.9368 12.3363C14.9578 12.416 14.9629 12.4991 14.9518 12.5808C14.9406 12.6624 14.9134 12.7411 14.8717 12.8122C14.3781 13.6676 13.6679 14.378 12.8125 14.8717C11.9572 15.3654 10.9868 15.6251 9.9992 15.6247C9.01157 15.6251 8.04124 15.3654 7.18588 14.8717C6.33052 14.378 5.6203 13.6676 5.1267 12.8122C5.04383 12.6686 5.02137 12.498 5.06426 12.3379C5.10716 12.1778 5.21191 12.0413 5.35545 11.9584Z" fill="#0A125A"/>
<path d="M8.75 8.125C8.75 9.16 8.19 10 7.5 10C6.81 10 6.25 9.16 6.25 8.125C6.25 7.09 6.81 6.25 7.5 6.25C8.19 6.25 8.75 7.09 8.75 8.125ZM13.75 8.125C13.75 9.16 13.19 10 12.5 10C11.81 10 11.25 9.16 11.25 8.125C11.25 7.09 11.81 6.25 12.5 6.25C13.19 6.25 13.75 7.09 13.75 8.125Z" fill="#0A125A"/>
</g>
<defs>
<clipPath id="clip0_315_51">
<rect width="20" height="20" fill="white"/>
</clipPath>
</defs>
</svg>
