<svg width="20" height="20" viewBox="0 0 20 20" fill="none" xmlns="http://www.w3.org/2000/svg">
<g clip-path="url(#clip0_226_388)">
<path fill-rule="evenodd" clip-rule="evenodd" d="M0.97674 0.976923C1.60316 0.351957 2.4519 0.000976563 3.33677 0.000976562C4.22163 0.000976562 5.07037 0.351957 5.69679 0.976923L10.0099 5.28845L14.3117 0.976923C14.9383 0.352354 15.787 0.00164751 16.6717 0.00164751C17.5565 0.00164751 18.4051 0.352354 19.0318 0.976923C19.6567 1.60335 20.0077 2.45208 20.0077 3.33695C20.0077 4.22182 19.6567 5.07055 19.0318 5.69697L14.7153 10.0004L19.0269 14.3119C19.6514 14.9385 20.0021 15.7872 20.0021 16.6719C20.0021 17.5566 19.6514 18.4053 19.0269 19.0319C18.4002 19.6565 17.5516 20.0072 16.6668 20.0072C15.7821 20.0072 14.9335 19.6565 14.3068 19.0319L10.0002 14.7155L5.69679 19.0271C5.07016 19.6516 4.2215 20.0023 3.33677 20.0023C2.45203 20.0023 1.60337 19.6516 0.97674 19.0271C0.352171 18.4004 0.00146484 17.5518 0.00146484 16.667C0.00146484 15.7823 0.352171 14.9336 0.97674 14.307L5.28501 10.0004L0.97674 5.68721C0.35475 5.06119 0.00565533 4.21454 0.00565533 3.33207C0.00565533 2.44959 0.35475 1.60294 0.97674 0.976923Z" fill="#FF54E9"/>
</g>
<defs>
<clipPath id="clip0_226_388">
<rect width="20" height="20" fill="white"/>
</clipPath>
</defs>
</svg>
