<svg width="32" height="30" viewBox="0 0 32 30" fill="none" xmlns="http://www.w3.org/2000/svg">
<path d="M5.76006 2.40039C4.00037 2.40039 2.56006 3.75068 2.56006 5.40039V24.6004C2.56006 26.2501 4.00037 27.6004 5.76006 27.6004H16.5326C16.6017 27.6111 16.6722 27.6111 16.7413 27.6004H20.3726C20.4417 27.6111 20.5122 27.6111 20.5813 27.6004H26.2401C27.9998 27.6004 29.4401 26.2501 29.4401 24.6004V5.40039C29.4401 3.75068 27.9998 2.40039 26.2401 2.40039H5.76006ZM5.76006 3.60039H26.2401C27.3079 3.60039 28.1601 4.3993 28.1601 5.40039V24.6004C28.1601 25.6015 27.3079 26.4004 26.2401 26.4004H21.1201V18.0004H23.5651L24.4613 13.8004H21.1201V12.6004C21.1201 12.2659 21.154 12.2397 21.2738 12.1668C21.3936 12.0938 21.7638 12.0004 22.4001 12.0004H24.3201V8.62188L23.9551 8.45898C23.9551 8.45898 22.485 7.80039 20.4801 7.80039C19.0401 7.80039 17.8571 8.33826 17.1001 9.22539C16.343 10.1125 16.0001 11.3004 16.0001 12.6004V13.8004H14.0801V18.0004H16.0001V26.4004H5.76006C4.69223 26.4004 3.84006 25.6015 3.84006 24.6004V5.40039C3.84006 4.3993 4.69223 3.60039 5.76006 3.60039ZM20.4801 9.00039C21.8107 9.00039 22.648 9.27546 23.0401 9.42109V10.8004H22.4001C21.6635 10.8004 21.0733 10.8575 20.5763 11.1602C20.0793 11.4628 19.8401 12.0373 19.8401 12.6004V15.0004H22.8988L22.5151 16.8004H19.8401V26.4004H17.2801V16.8004H15.3601V15.0004H17.2801V12.6004C17.2801 11.5004 17.5771 10.5883 18.1001 9.97539C18.623 9.36252 19.3601 9.00039 20.4801 9.00039Z" fill="black"/>
</svg>
