<svg width="32" height="30" viewBox="0 0 32 30" fill="none" xmlns="http://www.w3.org/2000/svg">
<path d="M10.2399 1.7998C5.65271 1.7998 1.91992 5.29929 1.91992 9.5998V20.3998C1.91992 24.7003 5.65271 28.1998 10.2399 28.1998H21.7599C26.3471 28.1998 30.0799 24.7003 30.0799 20.3998V9.5998C30.0799 5.29929 26.3471 1.7998 21.7599 1.7998H10.2399ZM10.2399 2.9998H21.7599C25.6553 2.9998 28.7999 5.94791 28.7999 9.5998V20.3998C28.7999 24.0517 25.6553 26.9998 21.7599 26.9998H10.2399C6.34457 26.9998 3.19992 24.0517 3.19992 20.3998V9.5998C3.19992 5.94791 6.34457 2.9998 10.2399 2.9998ZM23.6799 6.5998C23.3404 6.5998 23.0149 6.72623 22.7748 6.95128C22.5348 7.17632 22.3999 7.48154 22.3999 7.7998C22.3999 8.11806 22.5348 8.42329 22.7748 8.64833C23.0149 8.87338 23.3404 8.9998 23.6799 8.9998C24.0194 8.9998 24.345 8.87338 24.585 8.64833C24.8251 8.42329 24.9599 8.11806 24.9599 7.7998C24.9599 7.48154 24.8251 7.17632 24.585 6.95128C24.345 6.72623 24.0194 6.5998 23.6799 6.5998ZM15.9999 8.3998C12.1194 8.3998 8.95992 11.3618 8.95992 14.9998C8.95992 18.6378 12.1194 21.5998 15.9999 21.5998C19.8804 21.5998 23.0399 18.6378 23.0399 14.9998C23.0399 11.3618 19.8804 8.3998 15.9999 8.3998ZM15.9999 9.5998C19.1887 9.5998 21.7599 12.0104 21.7599 14.9998C21.7599 17.9892 19.1887 20.3998 15.9999 20.3998C12.8112 20.3998 10.2399 17.9892 10.2399 14.9998C10.2399 12.0104 12.8112 9.5998 15.9999 9.5998Z" fill="black"/>
</svg>
