<svg width="32" height="30" viewBox="0 0 32 30" fill="none" xmlns="http://www.w3.org/2000/svg">
<g clip-path="url(#clip0_87_3114)">
<path d="M21.8981 3.28125C18.0706 3.28125 14.9581 6.19922 14.9581 9.7875C14.9581 10.0031 15.0156 10.2141 15.0381 10.425C10.3056 10.0008 6.12058 7.86328 3.27808 4.59375C3.14558 4.43672 2.94058 4.35234 2.72558 4.36641C2.51308 4.38047 2.32308 4.49531 2.21808 4.66875C1.62058 5.63203 1.27808 6.74062 1.27808 7.93125C1.27808 9.37266 1.82808 10.6922 2.67808 11.775C2.51308 11.707 2.33308 11.6695 2.17808 11.5875C1.98058 11.4891 1.74308 11.4937 1.55058 11.6016C1.35808 11.7094 1.24058 11.9039 1.23808 12.1125V12.1875C1.23808 14.3977 2.45808 16.3172 4.25808 17.4937C4.23808 17.4914 4.21808 17.4984 4.19808 17.4937C3.97808 17.4586 3.75558 17.5312 3.60808 17.6883C3.46058 17.8453 3.41308 18.0633 3.47808 18.2625C4.19308 20.3461 6.01808 21.9375 8.27808 22.5187C6.47808 23.5219 4.39058 24.1125 2.13808 24.1125C1.65058 24.1125 1.18308 24.0891 0.718078 24.0375C0.418078 24 0.130578 24.1641 0.0305777 24.4312C-0.0719224 24.6984 0.0405777 24.9961 0.298078 25.1437C3.18558 26.8805 6.61308 27.9 10.2981 27.9C16.2706 27.9 20.9556 25.5609 24.0981 22.2187C27.2406 18.8766 28.8781 14.5359 28.8781 10.4812C28.8781 10.3102 28.8631 10.1437 28.8581 9.975C30.0306 9.13359 31.0781 8.14687 31.8981 6.99375C32.0606 6.77109 32.0431 6.47344 31.8556 6.26719C31.6706 6.06094 31.3581 5.99766 31.0981 6.1125C30.7681 6.25078 30.3831 6.26484 30.0381 6.375C30.4931 5.80547 30.8831 5.19141 31.1181 4.5C31.1981 4.26328 31.1106 4.00312 30.9031 3.84844C30.6956 3.69609 30.4056 3.67734 30.1781 3.80625C29.0856 4.41328 27.8756 4.83984 26.5981 5.1C25.3581 4.0125 23.7256 3.28125 21.8981 3.28125ZM21.8981 4.48125C23.5306 4.48125 25.0056 5.13516 26.0381 6.16875C26.1931 6.31875 26.4206 6.38203 26.6381 6.3375C27.4731 6.18281 28.2656 5.95547 29.0381 5.6625C28.5931 6.225 28.0431 6.70547 27.3981 7.06875C27.1056 7.20234 26.9681 7.51875 27.0756 7.80703C27.1806 8.09297 27.5006 8.25937 27.8181 8.19375C28.4581 8.12109 29.0281 7.87734 29.6381 7.725C29.0906 8.28047 28.4906 8.78203 27.8381 9.225C27.6606 9.34687 27.5631 9.54375 27.5781 9.75C27.5881 9.99375 27.5981 10.2352 27.5981 10.4812C27.5981 14.2312 26.0631 18.3023 23.1381 21.4125C20.2131 24.5227 15.9181 26.7 10.2981 26.7C7.74558 26.7 5.33558 26.1703 3.15808 25.2375C5.85808 25.043 8.34808 24.1477 10.3581 22.6687C10.5681 22.5117 10.6506 22.2492 10.5656 22.0102C10.4806 21.7711 10.2456 21.607 9.97808 21.6C7.86808 21.5648 6.10058 20.4141 5.15808 18.7875C5.19308 18.7875 5.22308 18.7875 5.25808 18.7875C5.89058 18.7875 6.51558 18.7125 7.09808 18.5625C7.37808 18.4852 7.57058 18.2414 7.56058 17.9672C7.55058 17.693 7.34308 17.4586 7.05808 17.4C4.78058 16.9687 3.07308 15.2297 2.67808 13.0687C3.32308 13.2773 3.98308 13.4414 4.69808 13.4625C4.99058 13.4789 5.25558 13.3078 5.34558 13.0477C5.43558 12.7875 5.32558 12.5016 5.07808 12.3562C3.55808 11.4023 2.55808 9.77812 2.55808 7.93125C2.55808 7.24687 2.74808 6.61875 2.99808 6.01875C6.19808 9.31172 10.6781 11.4984 15.7381 11.7375C15.9381 11.7469 16.1331 11.6695 16.2631 11.5266C16.3931 11.3812 16.4431 11.1891 16.3981 11.0062C16.3006 10.6172 16.2381 10.2047 16.2381 9.7875C16.2381 6.84844 18.7631 4.48125 21.8981 4.48125Z" fill="black"/>
</g>
<defs>
<clipPath id="clip0_87_3114">
<rect width="32" height="30" fill="white"/>
</clipPath>
</defs>
</svg>
