<svg width="32" height="30" viewBox="0 0 32 30" fill="none" xmlns="http://www.w3.org/2000/svg">
<path d="M16 1.2002C7.87798 1.2002 1.28003 7.38577 1.28003 15.0002C1.28003 22.6146 7.87798 28.8002 16 28.8002C24.1221 28.8002 30.72 22.6146 30.72 15.0002C30.72 7.38577 24.1221 1.2002 16 1.2002ZM16 2.4002C23.4303 2.4002 29.44 8.0343 29.44 15.0002C29.44 21.9661 23.4303 27.6002 16 27.6002C8.56974 27.6002 2.56003 21.9661 2.56003 15.0002C2.56003 8.0343 8.56974 2.4002 16 2.4002ZM9.60128 10.8002L7.01878 10.8014C7.01878 10.8014 6.871 10.7936 6.69253 10.8154C6.51405 10.8373 6.25039 10.8475 5.98003 11.1342L5.97878 11.1354L5.97753 11.1365C5.73704 11.3944 5.74622 11.6944 5.77628 11.8596C5.80623 12.0241 5.87378 12.1479 5.87378 12.1479V12.149C5.89861 12.2061 7.77371 16.5134 10.1375 18.8275C11.8049 20.461 13.5881 21.0002 15.1763 21.0002H16C16.271 21.0002 16.5131 20.9886 16.7813 20.8584C17.0495 20.7282 17.28 20.3687 17.28 20.0896C17.28 19.7889 17.2879 19.4974 17.3288 19.335C17.367 19.1832 17.3522 19.2205 17.3675 19.2201C17.3829 19.2232 17.4108 19.2293 17.4638 19.2518C17.5779 19.3001 17.7544 19.4082 17.95 19.5506C18.3407 19.835 18.8036 20.2475 19.3225 20.5666C20.0659 21.0285 20.8725 21.0002 20.8725 21.0002H23.5325L23.5613 20.9979C23.5613 20.9979 23.9694 20.9892 24.3888 20.7482C24.5984 20.6278 24.8476 20.4068 24.9313 20.0756C25.0149 19.7444 24.9081 19.3968 24.7025 19.0912C24.6274 18.9791 24.2628 18.4837 22.8075 17.2725C22.4316 16.9598 22.1752 16.7386 22.0738 16.6209C22.0378 16.5791 22.0348 16.5832 22.0275 16.5811C22.036 16.5605 22.1201 16.3945 22.345 16.1205C22.5795 15.8349 22.9357 15.437 23.3938 14.89C23.9776 14.1927 24.3873 13.5222 24.645 12.9564C24.7739 12.6736 24.8653 12.4169 24.92 12.1842C24.9748 11.9515 25.0185 11.7581 24.9375 11.4822C24.8772 11.2769 24.7132 11.093 24.5525 10.9959C24.3918 10.8988 24.242 10.8623 24.1075 10.8389C23.8386 10.7921 23.6013 10.8002 23.38 10.8002C22.9168 10.8002 20.8575 10.8154 20.6875 10.8154C20.488 10.8154 20.1698 10.8933 20.0225 10.9725C19.6569 11.1688 19.5425 11.4377 19.5425 11.4377L19.5075 11.4951L19.4875 11.5596C19.4875 11.5596 19.0186 12.9817 18.5363 13.7146H18.535C17.9679 14.5781 17.5448 14.9206 17.3588 15.0178C17.339 15.0281 17.35 15.0226 17.3363 15.0295C17.3217 14.9898 17.3034 14.9351 17.2913 14.8338C17.2641 14.6057 17.28 14.2844 17.28 13.9736C17.28 13.113 17.349 12.5763 17.2725 12.0682C17.2343 11.8141 17.137 11.5312 16.915 11.3135C16.6931 11.0958 16.4063 10.9887 16.12 10.9268H16.1188C15.8204 10.8623 15.4988 10.807 14.7263 10.8002C13.742 10.7916 13.1009 10.8202 12.5313 11.058L12.525 11.0615L12.52 11.0639C12.295 11.163 12.1175 11.2766 11.9613 11.4283C11.8832 11.5042 11.7905 11.5594 11.7263 11.801C11.6942 11.9217 11.6907 12.1502 11.8363 12.3354C11.9819 12.5205 12.186 12.5763 12.3063 12.5908C12.2841 12.5881 12.4009 12.6122 12.4913 12.6541C12.5816 12.696 12.6601 12.7563 12.68 12.7807V12.7818C12.6717 12.7717 12.7584 12.9738 12.7813 13.158C12.8041 13.3422 12.8 13.4908 12.8 13.4908L12.7988 13.5271L12.8025 13.5635C12.8025 13.5635 12.8418 13.9712 12.8213 14.392C12.811 14.6024 12.7826 14.8142 12.745 14.9439C12.743 14.9508 12.7421 14.9484 12.74 14.9545C12.5798 14.8496 12.2103 14.484 11.7013 13.6959C11.2307 12.9669 10.79 11.6557 10.79 11.6557L10.78 11.6264L10.7688 11.5982C10.7688 11.5982 10.6866 11.3053 10.3238 11.0662C9.9837 10.8418 9.66003 10.8107 9.66003 10.8107L9.60128 10.8002ZM9.45253 12.0002C9.48914 12.0127 9.56567 12.0386 9.58003 12.0447L9.56503 12.0025L9.58503 12.0459L9.58753 12.0471V12.0482H9.58878C9.55661 12.0271 9.58388 12.0481 9.58753 12.0529C9.60521 12.1095 9.99599 13.3714 10.6063 14.317C11.1622 15.1778 11.573 15.66 12.0213 15.9482C12.4692 16.2362 13.0714 16.2065 13.3775 16.0572C13.7866 15.858 13.901 15.5307 13.98 15.258C14.0591 14.9853 14.0873 14.7087 14.1 14.4471C14.1244 13.9479 14.0827 13.5395 14.0788 13.499C14.0794 13.4765 14.0851 13.2814 14.0525 13.0186C14.0197 12.7537 13.9608 12.4245 13.71 12.0939C13.9909 12.0548 14.1469 11.9952 14.7138 12.0002C15.4367 12.0066 15.5467 12.0349 15.8313 12.0963C15.9862 12.1298 16.0034 12.1575 15.9888 12.1432C15.9741 12.1288 15.9875 12.1192 16.005 12.2357C16.0401 12.4688 16 13.0667 16 13.9736C16 14.2293 15.9737 14.5898 16.0188 14.9674C16.0638 15.3447 16.1896 15.8275 16.6763 16.11C16.9536 16.2708 17.4833 16.3262 17.9825 16.0654C18.4818 15.8047 18.9941 15.3045 19.625 14.3439C20.2483 13.3969 20.621 12.1517 20.6613 12.0201C20.6613 12.0201 20.6684 12.0158 20.6725 12.0131C20.6838 12.0136 20.6694 12.0154 20.6875 12.0154C20.9246 12.0154 22.9473 12.0002 23.38 12.0002C23.4991 12.0002 23.5514 12.0062 23.64 12.0096C23.6042 12.1391 23.556 12.29 23.4675 12.4842C23.2595 12.9407 22.9026 13.5327 22.3863 14.1494C21.9413 14.6807 21.5956 15.066 21.3313 15.3881C21.0669 15.7101 20.8593 15.9642 20.7725 16.3314C20.6858 16.6987 20.8513 17.113 21.0775 17.3756C21.3038 17.6382 21.5837 17.8593 21.9575 18.1701C23.3656 19.3421 23.5966 19.6968 23.6188 19.7299V19.7311C23.6426 19.7664 23.6271 19.7309 23.6363 19.7486C23.5564 19.772 23.4614 19.7984 23.4525 19.8002H20.8625H20.8588C20.8588 19.8002 20.3824 19.7856 20.0288 19.5658L20.0275 19.5646H20.0263C19.6522 19.3349 19.2 18.941 18.735 18.6025C18.5025 18.4333 18.2658 18.2748 17.9913 18.1584C17.7167 18.042 17.3688 17.9595 17.0025 18.0623C16.4724 18.211 16.1783 18.684 16.0838 19.0596C16.016 19.3292 16.026 19.5636 16.0238 19.799C16.0055 19.7999 16.0213 19.8002 16 19.8002H15.1763C13.8755 19.8002 12.5222 19.4279 11.0625 17.9979C9.16482 16.14 7.47169 12.5472 7.21753 12.0014L9.45253 12.0002ZM20.6163 12.0049C20.6047 12.0073 20.6379 12.0097 20.665 12.0119C20.6614 12.0138 20.6653 12.0103 20.66 12.0131C20.6595 12.0031 20.6319 12.0016 20.6163 12.0049Z" fill="black"/>
</svg>
