<svg width="32" height="30" viewBox="0 0 32 30" fill="none" xmlns="http://www.w3.org/2000/svg">
<path d="M15.6174 5.40039C11.3924 5.40039 7.42492 5.70039 5.31242 6.11992C3.90492 6.41992 2.68742 7.31992 2.43242 8.70039C2.17742 10.1395 1.91992 12.3004 1.91992 15.0004C1.91992 17.7004 2.17492 19.8004 2.49492 21.3004C2.75242 22.6199 3.96742 23.5809 5.37492 23.8809C7.61742 24.3004 11.4549 24.6004 15.6799 24.6004C19.9049 24.6004 23.7424 24.3004 25.9824 23.8809C27.3924 23.5809 28.6074 22.6809 28.8624 21.3004C29.1199 19.8004 29.4399 17.6418 29.5024 14.9418C29.5024 12.2418 29.1824 10.0809 28.8624 8.58086C28.6074 7.26133 27.3924 6.30039 25.9824 6.00039C23.7424 5.70039 19.8399 5.40039 15.6174 5.40039ZM15.6174 6.60039C20.2249 6.60039 23.9349 6.95898 25.7274 7.25898C26.6874 7.50039 27.4549 8.10039 27.5824 8.88086C27.9674 10.8004 28.2224 12.8418 28.2224 14.9418C28.1599 17.5199 27.8399 19.6199 27.5824 21.1199C27.3924 22.259 26.1124 22.6199 25.7274 22.7418C23.4224 23.1613 19.5824 23.459 15.7424 23.459C11.9024 23.459 7.99992 23.2199 5.75992 22.7418C4.79992 22.5004 4.03242 21.9004 3.90492 21.1199C3.39242 19.4395 3.19992 17.2199 3.19992 15.0004C3.19992 12.2395 3.45742 10.2004 3.71242 8.9418C3.90492 7.80039 5.24742 7.43945 5.56742 7.31992C7.67992 6.90039 11.5849 6.60039 15.6174 6.60039ZM12.1599 10.2004V19.8004L21.1199 15.0004L12.1599 10.2004ZM13.4399 12.2418L18.5599 15.0004L13.4399 17.759V12.2418Z" fill="black"/>
</svg>
