<svg width="25" height="25" viewBox="0 0 25 25" fill="none" xmlns="http://www.w3.org/2000/svg">
<g clip-path="url(#clip0_311_773)">
<path d="M12.5 0C10.0277 0 7.61099 0.733112 5.55538 2.10663C3.49976 3.48015 1.89761 5.43238 0.951511 7.71646C0.00541601 10.0005 -0.242126 12.5139 0.24019 14.9386C0.722505 17.3634 1.91301 19.5907 3.66117 21.3388C5.40933 23.087 7.63661 24.2775 10.0614 24.7598C12.4861 25.2421 14.9995 24.9946 17.2835 24.0485C19.5676 23.1024 21.5199 21.5002 22.8934 19.4446C24.2669 17.389 25 14.9723 25 12.5C24.9964 9.1859 23.6783 6.00858 21.3348 3.66516C18.9914 1.32174 15.8141 0.00361886 12.5 0ZM12.5 23.8281C10.2595 23.8281 8.06934 23.1637 6.20644 21.919C4.34354 20.6742 2.89158 18.905 2.03418 16.8351C1.17678 14.7651 0.952449 12.4874 1.38955 10.29C1.82665 8.09255 2.90554 6.07407 4.48981 4.48981C6.07408 2.90554 8.09256 1.82664 10.29 1.38954C12.4874 0.952444 14.7651 1.17678 16.8351 2.03418C18.905 2.89158 20.6742 4.34353 21.919 6.20643C23.1637 8.06933 23.8281 10.2595 23.8281 12.5C23.8245 15.5033 22.6299 18.3825 20.5062 20.5062C18.3826 22.6298 15.5033 23.8245 12.5 23.8281Z" fill="black"/>
<path d="M14.476 7.00827C14.3662 6.89855 14.2173 6.83691 14.062 6.83691C13.9067 6.83691 13.7578 6.89855 13.6479 7.00827L8.5698 12.0864C8.46007 12.1963 8.39844 12.3452 8.39844 12.5005C8.39844 12.6557 8.46007 12.8047 8.5698 12.9145L13.6479 17.9926C13.759 18.0961 13.9059 18.1525 14.0577 18.1498C14.2095 18.1471 14.3543 18.0856 14.4617 17.9783C14.569 17.8709 14.6305 17.7261 14.6332 17.5743C14.6359 17.4225 14.5795 17.2756 14.476 17.1645L9.81198 12.5005L14.476 7.8364C14.5858 7.72653 14.6474 7.57761 14.6474 7.42234C14.6474 7.26706 14.5858 7.11814 14.476 7.00827Z" fill="black"/>
</g>
<defs>
<clipPath id="clip0_311_773">
<rect width="25" height="25" fill="white"/>
</clipPath>
</defs>
</svg>
