<svg width="25" height="25" viewBox="0 0 25 25" fill="none" xmlns="http://www.w3.org/2000/svg">
<g clip-path="url(#clip0_311_776)">
<path d="M12.5 25C14.9723 25 17.389 24.2669 19.4446 22.8934C21.5002 21.5199 23.1024 19.5676 24.0485 17.2835C24.9946 14.9995 25.2421 12.4861 24.7598 10.0614C24.2775 7.63661 23.087 5.40932 21.3388 3.66117C19.5907 1.91301 17.3634 0.7225 14.9386 0.240185C12.5139 -0.24213 10.0005 0.00541115 7.71645 0.951506C5.43237 1.8976 3.48014 3.49976 2.10662 5.55537C0.733107 7.61099 -5.72205e-06 10.0277 -5.72205e-06 12.5C0.00361252 15.8141 1.32174 18.9914 3.66516 21.3348C6.00858 23.6783 9.1859 24.9964 12.5 25ZM12.5 1.17188C14.7405 1.17188 16.9307 1.83626 18.7936 3.08101C20.6565 4.32576 22.1084 6.09497 22.9658 8.16491C23.8232 10.2349 24.0476 12.5126 23.6105 14.71C23.1734 16.9074 22.0945 18.9259 20.5102 20.5102C18.9259 22.0945 16.9074 23.1734 14.71 23.6105C12.5126 24.0476 10.2349 23.8232 8.16491 22.9658C6.09496 22.1084 4.32575 20.6565 3.081 18.7936C1.83625 16.9307 1.17187 14.7405 1.17187 12.5C1.17549 9.49671 2.37015 6.61745 4.4938 4.4938C6.61745 2.37015 9.4967 1.17549 12.5 1.17188Z" fill="black"/>
<path d="M10.524 17.9917C10.6338 18.1015 10.7827 18.1631 10.938 18.1631C11.0933 18.1631 11.2422 18.1015 11.3521 17.9917L16.4302 12.9136C16.5399 12.8037 16.6016 12.6548 16.6016 12.4995C16.6016 12.3443 16.5399 12.1953 16.4302 12.0855L11.3521 7.00735C11.241 6.90385 11.0941 6.84751 10.9423 6.85018C10.7905 6.85286 10.6457 6.91436 10.5383 7.02171C10.431 7.12906 10.3695 7.2739 10.3668 7.42569C10.3641 7.57749 10.4205 7.7244 10.524 7.83548L15.188 12.4995L10.524 17.1636C10.4142 17.2735 10.3526 17.4224 10.3526 17.5777C10.3526 17.7329 10.4142 17.8819 10.524 17.9917Z" fill="black"/>
</g>
<defs>
<clipPath id="clip0_311_776">
<rect width="25" height="25" fill="white" transform="matrix(-1 0 0 -1 25 25)"/>
</clipPath>
</defs>
</svg>
