<svg width="41" height="40" viewBox="0 0 41 40" fill="none" xmlns="http://www.w3.org/2000/svg">
<path d="M20.2227 37.5C10.5827 37.5 2.72266 29.64 2.72266 20C2.72266 10.36 10.5827 2.5 20.2227 2.5C29.8627 2.5 37.7227 10.36 37.7227 20C37.7227 29.64 29.8627 37.5 20.2227 37.5ZM20.2227 4.9C11.9027 4.9 5.12266 11.68 5.12266 20C5.12266 28.32 11.9027 35.1 20.2227 35.1C28.5427 35.1 35.3227 28.32 35.3227 20C35.3227 11.68 28.5427 4.9 20.2227 4.9Z" fill="white"/>
<path d="M21.882 9.63932C23.042 9.91932 23.6021 11.2793 23.3421 12.4393C23.0621 13.5993 21.982 14.5793 20.822 14.2993C19.662 14.0193 19.2221 12.6793 19.4821 11.5193C19.7621 10.3593 20.722 9.35932 21.882 9.63932ZM16.9021 18.2193C16.9021 18.2193 20.4021 15.1593 21.7621 15.7593C22.6821 15.9993 22.182 20.1393 22.042 20.6993C22.002 21.1993 21.2021 27.4993 21.4021 27.7793C21.6821 28.8193 22.0021 27.9993 22.9821 27.1793C22.9821 27.1793 25.282 25.6193 22.822 28.8593C20.782 31.0393 18.802 30.7593 18.502 29.1193C18.262 27.8793 19.2421 20.3793 19.4821 18.6993C19.5621 18.1393 18.862 18.6993 18.862 18.6993C18.862 18.6993 16.9621 19.8793 16.5021 19.0793C16.3821 18.8593 16.5621 18.5193 16.9021 18.2193Z" fill="white"/>
</svg>
