<svg width="41" height="40" viewBox="0 0 41 40" fill="none" xmlns="http://www.w3.org/2000/svg">
<g clip-path="url(#clip0_254_307)">
<path d="M20.5 0C9.19493 0 0 8.97067 0 20C0 31.0293 9.19493 40 20.5 40C31.8051 40 41 31.0293 41 20C41 8.97067 31.8051 0 20.5 0ZM20.5 37.3333C10.7037 37.3333 2.73333 29.5573 2.73333 20C2.73333 10.4427 10.7037 2.66667 20.5 2.66667C30.2963 2.66667 38.2667 10.4427 38.2667 20C38.2667 29.5573 30.2963 37.3333 20.5 37.3333Z" fill="white"/>
<path d="M21.8664 9.33398H19.1331V18.6673H9.56641V21.334H19.1331V30.6673H21.8664V21.334H31.4331V18.6673H21.8664V9.33398Z" fill="white"/>
</g>
<defs>
<clipPath id="clip0_254_307">
<rect width="41" height="40" fill="white"/>
</clipPath>
</defs>
</svg>
